<?xml version="1.0" encoding="iso-8859-1"?>
<!-- Generator: Adobe Illustrator 19.0.0, SVG Export Plug-In . SVG Version: 6.00 Build 0)  -->
<svg version="1.1" id="Capa_1" xmlns="http://www.w3.org/2000/svg" xmlns:xlink="http://www.w3.org/1999/xlink" x="0px" y="0px"
	 viewBox="0 0 490.667 490.667" style="enable-background:new 0 0 490.667 490.667;" xml:space="preserve">
<path style="fill:#CFD8DC;" d="M245.333,0C109.839,0,0,109.839,0,245.333s109.839,245.333,245.333,245.333
	s245.333-109.839,245.333-245.333C490.514,109.903,380.764,0.153,245.333,0z"/>
<g>
	<circle style="fill:#2196F3;" cx="245.333" cy="245.333" r="53.333"/>
	<path style="fill:#2196F3;" d="M421.909,236.459l-64-42.667c-4.904-3.264-11.526-1.934-14.79,2.971
		c-1.164,1.749-1.785,3.803-1.786,5.904V288c0.006,3.927,2.17,7.533,5.632,9.387c1.545,0.841,3.276,1.281,5.035,1.28
		c2.103-0.002,4.159-0.625,5.909-1.792l64-42.667c4.901-3.268,6.225-9.891,2.957-14.792
		C424.086,238.245,423.081,237.24,421.909,236.459L421.909,236.459z"/>
	<path style="fill:#2196F3;" d="M143.701,193.28c-3.464-1.859-7.669-1.662-10.944,0.512l-64,42.667
		c-4.901,3.268-6.225,9.891-2.957,14.792c0.781,1.171,1.786,2.176,2.957,2.957l64,42.667c1.75,1.167,3.806,1.79,5.909,1.792
		c1.759,0.001,3.49-0.439,5.035-1.28c3.462-1.854,5.626-5.46,5.632-9.387v-85.333C149.327,198.74,147.163,195.134,143.701,193.28z"
		/>
</g>
<g>
</g>
<g>
</g>
<g>
</g>
<g>
</g>
<g>
</g>
<g>
</g>
<g>
</g>
<g>
</g>
<g>
</g>
<g>
</g>
<g>
</g>
<g>
</g>
<g>
</g>
<g>
</g>
<g>
</g>
</svg>
